<svg width="196" height="50" viewBox="0 0 196 50" fill="none" xmlns="http://www.w3.org/2000/svg">
<g id="logo">
<g id="Group">
<path id="Vector" d="M72.0572 23.7025V11.9509H66.4941V6.25498H72.0572V0H77.6671V6.25498H84.4537V11.9509H77.6671V23.7025C77.6671 25.5907 78.7304 26.4585 80.6656 26.4585H84.4537V31.1498H80.0362C75.1534 31.1498 72.0572 28.7299 72.0572 23.7025Z" fill="#111720"/>
<path id="Vector_2" d="M59.0079 11.9504H39.8091V5.99648H45.419V8.77603C47.5496 6.64543 51.0172 5.51172 54.5005 5.51172C59.8211 5.51172 64.6179 8.41246 64.6179 14.7026V31.1454H59.0079V11.9465V11.9504Z" fill="#111720"/>
<g id="Group_2">
<path id="Vector_3" d="M30.446 13.6403C30.446 11.1187 27.5608 10.1101 24.5155 10.1101C21.6616 10.1101 18.8782 11.4627 18.6358 13.6403H13.0728C13.5106 8.22188 19.144 5.5166 24.5624 5.5166C29.9807 5.5166 36.0051 7.88567 36.0051 13.8826V31.1503H30.446V13.6403Z" fill="#111720"/>
<path id="Vector_4" d="M33.5966 19.6251L30.4496 19.3592H18.6512V31.1499H13.0764V27.2171C13.0764 19.7697 16.845 15.8486 24.5426 15.8486C28.7569 15.8486 30.9656 16.9863 33.5966 19.6173V19.6212V19.6251Z" fill="#111720"/>
</g>
<path id="Vector_5" d="M5.89922 25.251H0V31.1502H5.89922V25.251Z" fill="#111720"/>
<path id="Vector_6" d="M111.839 19.3509C111.855 19.0928 111.862 18.8348 111.862 18.5729C111.862 11.3601 106.084 5.51562 98.9536 5.51562C91.823 5.51562 86.0449 11.364 86.0449 18.5729C86.0449 25.7817 91.823 31.6302 98.9536 31.6302H99.626C104.884 31.6302 109.403 28.4518 111.417 23.8896H105.834C104.454 25.7974 102.21 27.0406 99.6769 27.0406H99.0044C94.8097 27.0406 91.4086 23.6394 91.4086 19.4447C91.4086 19.4134 91.4086 19.3821 91.4086 19.3509H111.839ZM99.0044 10.1091C102.37 10.1091 105.224 12.2984 106.221 15.332H91.7878C92.7847 12.2984 95.6385 10.1091 99.0044 10.1091Z" fill="#111720"/>
<path id="Vector_7" d="M129.74 5.51562C125.897 5.51562 122.785 6.64934 120.659 8.77994V6.00039H115.049V31.1493H120.659V16.3602C120.659 12.0482 124.49 10.3515 127.782 10.3515C131.613 10.3515 134.244 12.0482 134.244 15.8754V31.1493H139.854V14.7065C139.854 8.42028 135.061 5.51562 129.736 5.51562H129.74Z" fill="#111720"/>
<path id="Vector_8" d="M183.599 5.51562C178.181 5.51562 172.544 8.22481 172.11 13.6393H177.673C177.915 11.4618 180.699 10.1091 183.552 10.1091C186.598 10.1091 189.483 11.1177 189.483 13.6393V17.1342C186.973 16.2546 184.741 15.8285 182.231 15.8285C174.541 15.8285 171.703 20.0702 171.703 24.2649C171.703 27.9084 173.955 30.0156 177.106 31.0555C178.259 31.4386 179.534 31.6341 180.863 31.6341C184.002 31.6341 187.247 30.5707 189.483 28.401V31.1532H195.042V13.8856C195.042 7.88861 189.26 5.51953 183.599 5.51953V5.51562ZM182.196 27.5488C179.545 27.5488 177.571 26.3877 177.501 24.0655C177.466 22.8966 177.978 21.5557 179.021 20.723C180.343 19.6675 181.52 19.3587 185.398 19.3587H189.479V21.8763C189.338 25.5159 185.554 27.5449 182.196 27.5449V27.5488Z" fill="#111720"/>
<path id="Vector_9" d="M158.353 5.51562C154.51 5.51562 151.398 6.64934 149.271 8.77994V6.00039H143.661V31.1493H149.271V16.3602C149.271 12.0482 153.102 10.3515 156.394 10.3515C160.225 10.3515 162.856 12.0482 162.856 15.8754V31.1493H168.466V14.7065C168.466 8.42028 163.673 5.51562 158.349 5.51562H158.353Z" fill="#111720"/>
</g>
<g id="Group_3">
<g id="Group_4">
<path id="Vector_10" d="M163.001 48.0651H164.087C164.158 48.5225 164.713 49.0542 165.706 49.0542C166.699 49.0542 167.418 48.4756 167.418 47.4631V46.6656C166.972 47.2559 166.308 47.5843 165.416 47.5843C163.821 47.5843 162.688 46.3645 162.688 44.3395C162.688 42.3144 163.821 41.0947 165.416 41.0947C166.308 41.0947 166.972 41.4192 167.418 42.0134V41.2159H168.481V47.467C168.481 49.1089 167.227 50.0002 165.706 50.0002C164.185 50.0002 163.122 49.1558 163.004 48.069L163.001 48.0651ZM165.702 46.6421C166.425 46.6421 167.137 46.1964 167.414 45.5436V43.1315C167.137 42.4786 166.425 42.033 165.702 42.033C164.545 42.033 163.771 42.9126 163.771 44.3395C163.771 45.7664 164.545 46.646 165.702 46.646V46.6421Z" fill="#111720"/>
</g>
<g id="Group_5">
<path id="Vector_11" d="M170.459 41.212H171.523V42.2519C171.992 41.5287 172.731 41.0947 173.501 41.0947H173.743V42.1815H173.501C172.535 42.1815 171.812 42.7132 171.523 43.3152V47.467H170.459V41.2159V41.212Z" fill="#111720"/>
</g>
<g id="Group_6">
<path id="Vector_12" d="M174.525 44.3366C174.525 42.2372 175.827 41.0918 177.52 41.0918C179.213 41.0918 180.515 42.2372 180.515 44.3366C180.515 46.4359 179.213 47.5813 177.52 47.5813C175.827 47.5813 174.525 46.4359 174.525 44.3366ZM179.424 44.3366C179.424 42.8393 178.603 42.03 177.516 42.03C176.429 42.03 175.608 42.8393 175.608 44.3366C175.608 45.8339 176.429 46.6431 177.516 46.6431C178.603 46.6431 179.424 45.8339 179.424 44.3366Z" fill="#111720"/>
</g>
<g id="Group_7">
<path id="Vector_13" d="M184.638 46.643C185.362 46.643 186.038 46.1582 186.304 45.7243V41.2129H187.367V47.464H186.304V46.6899C185.823 47.245 185.084 47.5812 184.302 47.5812C182.973 47.5812 182.082 46.858 182.082 45.2864V41.209H183.145V45.0714C183.145 46.1582 183.747 46.6391 184.642 46.6391L184.638 46.643Z" fill="#111720"/>
</g>
<g id="Group_8">
<path id="Vector_14" d="M190.323 46.6665V49.8761H189.26V41.213H190.323V42.0105C190.769 41.4202 191.433 41.0918 192.325 41.0918C193.916 41.0918 195.053 42.3115 195.053 44.3366C195.053 46.3616 193.92 47.5813 192.325 47.5813C191.433 47.5813 190.769 47.2569 190.323 46.6626V46.6665ZM192.035 46.6431C193.193 46.6431 193.967 45.7635 193.967 44.3366C193.967 42.9097 193.193 42.03 192.035 42.03C191.312 42.03 190.601 42.4757 190.323 43.1286V45.5406C190.601 46.1935 191.312 46.6392 192.035 46.6392V46.6431Z" fill="#111720"/>
</g>
</g>
</g>
</svg>
